HIERARCHY
ROOT root
{
	OFFSET 0.000000 0.000000 0.000000
	CHANNELS 6 Xposition Yposition Zposition Zrotation Yrotation Xrotation
	JOINT lhip
	{
		OFFSET 0.058581 -0.082280 -0.017664
		CHANNELS 3 Zrotation Yrotation Xrotation
		JOINT lknee
		{
			OFFSET 0.043451 -0.386469 0.008037
			CHANNELS 3 Zrotation Yrotation Xrotation
			JOINT lankle
			{
				OFFSET -0.014790 -0.426874 -0.037428
				CHANNELS 3 Zrotation Yrotation Xrotation
				JOINT ltoe
				{
					OFFSET 0.041054 -0.060286 0.122042
					CHANNELS 3 Zrotation Yrotation Xrotation
					End Site
					{
						OFFSET 0.000000 0.000000 0.000000
					}
				}
			}
		}
	}
	JOINT rhip
	{
		OFFSET -0.060310 -0.090513 -0.013543
		CHANNELS 3 Zrotation Yrotation Xrotation
		JOINT rknee
		{
			OFFSET -0.043257 -0.383688 -0.004843
			CHANNELS 3 Zrotation Yrotation Xrotation
			JOINT rankle
			{
				OFFSET 0.019056 -0.420046 -0.034562
				CHANNELS 3 Zrotation Yrotation Xrotation
				JOINT rtoe
				{
					OFFSET -0.034840 -0.062106 0.130323
					CHANNELS 3 Zrotation Yrotation Xrotation
					End Site
					{
						OFFSET 0.000000 0.000000 0.000000
					}
				}
			}
		}
	}
	JOINT lowerback
	{
		OFFSET 0.004439 0.124404 -0.038385
		CHANNELS 3 Zrotation Yrotation Xrotation
		JOINT upperback
		{
			OFFSET 0.004488 0.137956 0.026820
			CHANNELS 3 Zrotation Yrotation Xrotation
			JOINT chest
			{
				OFFSET -0.002265 0.056032 0.002855
				CHANNELS 3 Zrotation Yrotation Xrotation
				JOINT lowerneck
				{
					OFFSET -0.013390 0.211636 -0.033468
					CHANNELS 3 Zrotation Yrotation Xrotation
					JOINT upperneck
					{
						OFFSET 0.010113 0.088937 0.050410
						CHANNELS 3 Zrotation Yrotation Xrotation
						End Site
						{
							OFFSET 0.000000 0.000000 0.000000
						}
					}
				}
				JOINT lclavicle
				{
					OFFSET 0.071702 0.114000 -0.018898
					CHANNELS 3 Zrotation Yrotation Xrotation
					JOINT lshoulder
					{
						OFFSET 0.122921 0.045205 -0.019046
						CHANNELS 3 Zrotation Yrotation Xrotation
						JOINT lelbow
						{
							OFFSET 0.255332 -0.015649 -0.022946
							CHANNELS 3 Zrotation Yrotation Xrotation
							JOINT lwrist
							{
								OFFSET 0.265709 0.012698 -0.007375
								CHANNELS 3 Zrotation Yrotation Xrotation
								End Site
								{
									OFFSET 0.000000 0.000000 0.000000
								}
							}
						}
					}
				}
				JOINT rclavicle
				{
					OFFSET -0.082954 0.112472 -0.023707
					CHANNELS 3 Zrotation Yrotation Xrotation
					JOINT rshoulder
					{
						OFFSET -0.113228 0.046853 -0.008472
						CHANNELS 3 Zrotation Yrotation Xrotation
						JOINT relbow
						{
							OFFSET -0.260127 -0.014369 -0.031269
							CHANNELS 3 Zrotation Yrotation Xrotation
							JOINT rwrist
							{
								OFFSET -0.269108 0.006794 -0.006027
								CHANNELS 3 Zrotation Yrotation Xrotation
								End Site
								{
									OFFSET 0.000000 0.000000 0.000000
								}
							}
						}
					}
				}
			}
		}
	}
}
MOTION
Frames: 5
Frame Time: 0.033333
-0.055546 1.281123 0.928629 -126.531260 6.806245 90.238555 2.404436 6.711954 -22.301337 -12.675883 0.666125 45.428359 1.548989 21.579206 -36.328370 0.000000 -0.000000 0.000000 -1.481533 -5.556785 -33.790579 3.280540 1.898842 18.025483 1.559161 -14.553272 -20.464882 0.000000 -0.000000 0.000000 3.451397 -1.857633 29.075807 -0.416600 -1.664653 6.813177 3.749371 -0.489649 3.083732 -6.870322 2.438259 -0.525002 4.820098 0.913932 -35.893124 3.589346 -8.949474 -5.652771 -7.542050 -1.212124 -14.743270 6.216917 1.566091 -17.535708 0.824812 -22.461524 14.621771 -15.054530 11.037783 -3.079960 2.690735 -3.420446 -21.582942 -0.167588 -0.215057 -4.383986 -0.431766 16.108774 1.796600 
-0.082226 1.300961 0.924945 -122.539011 5.760047 89.780076 2.313141 6.805203 -19.827707 -14.555753 0.617156 47.017049 1.344531 20.480341 -36.687760 0.000000 -0.000000 0.000000 -2.650285 -5.106420 -33.182369 3.561494 1.504541 20.250629 1.575157 -14.809501 -20.727249 0.000000 -0.000000 0.000000 3.953098 -2.404630 28.641934 -0.081558 -1.669521 7.546672 3.730067 -0.430206 2.730354 -6.180700 2.121939 0.091104 4.713955 1.113052 -35.910333 3.788299 -9.223353 -4.901691 -7.491612 -0.850398 -15.361290 6.595209 1.715988 -18.204366 -1.626708 -21.190222 15.787301 -15.340654 11.456548 -2.906383 2.220812 -3.355521 -22.236779 -0.216016 -0.589401 -4.670307 1.974610 16.116440 3.152900 
-0.108138 1.321512 0.920032 -118.881215 5.108883 89.144444 3.883425 8.554539 -19.071529 -15.844024 3.395601 52.084865 1.215281 17.880318 -33.329764 0.000000 -0.000000 0.000000 -4.115495 -3.141991 -32.197900 4.026442 4.644903 26.569989 1.451957 -11.313977 -18.448599 0.000000 -0.000000 0.000000 4.592111 -3.046758 28.422534 0.179654 -1.493900 8.088827 3.436104 -0.230040 2.396555 -4.905078 3.114330 0.575296 3.997195 0.459596 -36.517962 4.061020 -9.070070 -4.647456 -7.487884 -0.000688 -15.104468 6.981428 1.209250 -17.702951 -1.338188 -21.221021 14.813161 -15.259769 11.739746 -2.299971 1.426000 -2.844100 -22.606046 0.273160 -0.256097 -4.577121 1.790872 15.875892 2.939561 
-0.132522 1.342035 0.914981 -115.423046 4.542616 88.574604 6.398319 10.753988 -21.313881 -16.670801 7.130110 60.940923 0.902677 14.053208 -24.601042 0.000000 -0.000000 0.000000 -5.637374 -3.096771 -32.004090 3.465872 3.083780 33.031362 -0.308062 -13.524951 -16.511000 0.000000 -0.000000 0.000000 4.673109 -3.551322 27.950455 0.162271 -1.411253 8.852553 3.439946 0.093784 2.279083 -3.590238 3.699149 1.088215 3.696667 0.017659 -36.841939 3.696023 -10.079740 -3.626700 -6.752508 2.475297 -14.742342 7.406700 0.763759 -16.831369 0.240597 -21.161761 12.568107 -15.499080 13.522852 -1.534918 1.421012 -3.245121 -22.789265 0.699732 0.272089 -5.360104 -0.070015 16.594337 0.928731 
-0.155837 1.360727 0.910936 -112.455254 3.956005 88.542516 8.950826 12.263379 -25.229118 -15.805615 11.302712 68.711490 -0.524860 11.802028 -16.136213 0.000000 -0.000000 0.000000 -6.901975 -4.769416 -31.360159 4.141060 0.717237 37.663875 -2.652026 -13.731330 -20.231110 0.000000 -0.000000 0.000000 4.783509 -2.988054 27.761581 -0.236462 -1.466488 9.333087 3.510932 0.343179 0.932367 -2.895241 4.615548 1.947398 4.319012 -0.457257 -36.909811 3.356529 -11.033548 -2.473954 -5.916804 3.987883 -14.585034 7.600809 1.384171 -15.763375 1.638091 -21.327038 10.769328 -15.088549 15.050961 -0.567720 1.546214 -3.568345 -22.755935 1.241015 1.743879 -5.738097 -1.524694 16.909861 -0.737091 
